<svg viewBox="0 0 300 300.5" xmlns="http://www.w3.org/2000/svg"><path d="m150 .4c51.5 0 100.2 15.7 144.8 41.4l3.3 1.5-.9 3.5c-.1 51.4-13.8 98.5-39.6 143s-60.7 81-105.2 106.8l-2.4 1.8-2.6-1.9c-44.5-25.8-78-62-103.8-106.5s-40.8-94-40.8-145.4l-.5-2.4 1.8-1.3c44.5-25.8 94.4-40.7 145.9-40.8" fill="#8d33e5"/><path d="m296.4 40.4c-44.5-25.8-94.9-39.9-146.4-39.9v296.1l3.3 2c44.5-25.8 80.8-62.8 106.5-107.3 25.8-44.2 39.4-94.4 39.6-145.6v-3.7z" fill="#7000df"/><path d="m300 45v-3.8l-3.3-2c-90.7-52.3-202.6-52.3-293.3 0l-3.4 2v3.8c.2 104.7 56.1 201.3 146.7 253.6l3.3 1.9 3.3-1.9c90.7-52.3 146.5-148.9 146.7-253.6zm-150 240.6c-86.5-50.5-141.9-140.7-142.4-240.7 88.4-49.8 196.4-49.8 284.9 0-.5 100.1-55.9 190.2-142.5 240.7z" fill="#7000df"/><path d="m150 285.6c-86.5-50.5-141.9-140.7-142.4-240.7 43.5-24.4 92.5-37.3 142.4-37.3v-7.6c-51.5 0-102.1 13.6-146.7 39.3l-3.3 2v3.7c.2 104.7 56.1 201.3 146.7 253.6l3.3 1.9z" fill="#8d33e5"/><path d="m244.4 93.5c0-1.1-.2-2.2-.6-3.3-3.4-9.7-8.3-18.8-14.7-26.8-1.5-2-3.3-4-5-6l-1.3-1.5c-.5-.6-1.2-1.1-1.9-1.5-1.4-.8-3-1.2-4.6-1.2-.8 0-1.6.2-2.3.5-.4.1-.7.3-1.1.5 0 0-54.6 29.6-63.1 34-8.5-4.4-62.8-34.2-64.2-34.3-.7-.2-1.5-.4-2.3-.5-1.6 0-3.2.4-4.5 1.1-.7.4-1.3.9-1.8 1.5l-1.3 1.5c-1.7 2-3.4 3.9-5 6-6.2 7.2-13 21.1-14.4 25.5-.7 1.4-1 2.9-1 4.4 0 3.1 1.4 6.1 3.9 8.1.2.2.5.4.7.6l.7.4 1 .7 8.6 5.3 17 10.6 17.1 10.7 14.1 8.6.2 60.2.1 6.5.2 3.3c0 .6 0 1.3.1 1.9.1 1.2.4 2.3.8 3.4.9 2 2.2 3.7 3.9 5 1.8 1.3 3.8 2.2 5.9 2.8s3.9.9 6.5 1.3c9.2 1.3 18.6 1.3 27.8 0 3.2-.6 4.2-.8 6.4-1.2s4.2-1.4 5.9-2.8c1.7-1.3 3.1-3 4-5 .4-1.1.7-2.3.8-3.4.1-.8.1-1.3.1-1.9 0 0 .8-54.2.5-69.9l14.1-8.6 17.1-10.8 17.1-10.8 8.6-5.3.1-.2c3.6-1.8 5.8-5.4 5.8-9.4z" fill="#3f017f"/><path d="m125.1 135.3c.1-5.1-1.1-10.1-3.3-14.7s-5.4-8.6-9.4-11.7c-11.3-9-28.8-12.2-45.7-8.5-1.1.2-4.2-1.7-5.3-1.9-.1 0-.2-.2.3.3.2.2.5.9.6 1l62.7 36z" fill="#f4a900"/><path d="m180.1 95.8c13.4-5.3 24.9-18.8 30.3-35.3.4-1.2 2.5-1.5 3.5-2.3.3-.2-.7-1.3-.4-1.5l-63.4 36.5.8.4c8.9 5.2 19.6 6 29.2 2.2z" fill="#78b6e4"/><path d="m173.8 136.9c-4.3 2.5-8 6-10.8 10.2s-4.6 9-5.3 14c-2 14.1 3.9 30.8 15.5 43.6.9.9.9 2.7 1 3.9.1.4.4.4.7.6l.2-73z" fill="#20b5ac"/><g fill="#3f017f"><path d="m160.7 163.8c1.2-9.9 7.9-18.1 17.1-23.7l-2.6-4.1-1.4.9c-4.3 2.5-8 6-10.8 10.2s-4.6 9-5.3 14c-1.8 12.4 2.6 26.9 11.6 38.9-6.9-11.7-10.2-24.8-8.6-36.2z"/><path d="m180.7 92c-9.3 3.8-19.6 2.1-29-3.2l-2.2 4.3 1.4.8c4.4 2.5 9.2 4 14.2 4.3s10-.4 14.7-2.3c11.5-4.4 23.9-16.5 30-29.9.1-.2-.9-1.3-1.9.7-6.6 11.8-16.4 21-27.2 25.3z"/><path d="m108.9 111c7.8 6.3 11.3 14.8 11.1 25.4l4.8 1.5 1.5-1.6c.3-10.2-4.2-22.8-12.1-29.3-9.3-7.8-28.8-10.4-41.8-8.4-.5.1-.8.8 2.7.7 13.6.1 24.9 4.3 33.8 11.7z"/></g><path d="m150 217.4c-6.8 0-13.5-.8-20-2.6-1.4-.4-2.6-1.3-3.5-2.4-.9-1.2-1.3-2.6-1.3-4v-73.2c.1-10.3-4.6-20-12.6-26.3-11.3-9-28.8-12.2-45.7-8.5-1.7.4-3.5.1-5-.8s-2.5-2.4-3-4.2c-.3-1.3-.2-2.6.2-3.8 2.1-6.1 4.8-12 7.9-17.6 3.4-5.9 7.5-11.3 12.3-16 1-1 2.4-1.6 3.8-1.8s2.9.1 4.2.8l61.9 35.7 1.7 1c4.4 2.6 9.3 4.1 14.4 4.4s10.1-.5 14.8-2.4c13.4-5.3 25-18.8 30.3-35.3.3-.8.7-1.6 1.2-2.3.6-.7 1.3-1.2 2.1-1.7.8-.4 1.6-.6 2.5-.8.9-.1 1.8 0 2.6.3 1.2.4 2.3 1.1 3.2 2.1 4.2 4.9 8 10.2 11.3 15.8 3.4 5.8 6.1 12.1 7.8 18.7.3 1.4.2 2.9-.4 4.2-.5 1.3-1.5 2.4-2.8 3.2l-62.3 35.9-1.7 1c-4.3 2.5-8 6-10.8 10.2s-4.6 9-5.3 14c-2 14.1 3.9 30.8 15.5 43.6.8.9 1.4 2 1.6 3.1.2 1.2.2 2.4-.2 3.5s-1.1 2.1-2 2.9-2 1.3-3.2 1.5c-6.5 1.2-13 1.8-19.5 1.8z" fill="#fff"/></svg>